<svg id="Capa_1" enable-background="new 0 0 512.001 512.001" height="512" viewBox="0 0 512.001 512.001" width="512" xmlns="http://www.w3.org/2000/svg"><g><path d="m158.668 417.001h194.713c1.259-10.062 2.591-21.882 3.64-34h-201.845c1.034 12.426 2.3 24.132 3.492 34z"/><path d="m255.671 511.998c.194.004.427.005.625 0 61.563-1.282 88.236-34.094 92.89-64.997h-186.406c4.656 30.903 31.329 63.714 92.891 64.997z"/><path d="m367.521 46.181c-30.249-30.037-70.323-46.505-112.68-46.176-86.641.61-157.454 72.049-157.855 159.248-.166 35.976 11.396 69.966 33.439 98.297 15.602 20.051 22.559 44.246 22.559 78.451 0 5.568.122 11.268.337 17h87.663v-122.787l-27.606-27.607c-5.858-5.858-5.858-15.355 0-21.213 5.857-5.858 15.355-5.858 21.213 0l21.394 21.394 21.394-21.394c5.857-5.858 15.355-5.858 21.213 0s5.858 15.355 0 21.213l-27.606 27.606v122.787h87.864c.088-3.073.136-6.083.136-9 0-37.295 7.787-67.71 21.926-85.642 49.782-63.142 44.854-154.342-13.391-212.177z"/></g></svg>