<svg width="27" height="28" viewBox="0 0 27 28" fill="none" xmlns="http://www.w3.org/2000/svg">
<rect x="1" y="1.38354" width="21" height="19" rx="1" stroke="black" stroke-width="2"/>
<path fill-rule="evenodd" clip-rule="evenodd" d="M21 2.38354H2V4.38354V6.38354H21V2.38354ZM2 4.38354C2 3.83126 2.44772 3.38354 3 3.38354C3.55228 3.38354 4 3.83126 4 4.38354C4 4.93583 3.55228 5.38354 3 5.38354C2.44772 5.38354 2 4.93583 2 4.38354ZM10 4.38354C10 4.93583 9.55228 5.38354 9 5.38354C8.44771 5.38354 8 4.93583 8 4.38354C8 3.83126 8.44771 3.38354 9 3.38354C9.55228 3.38354 10 3.83126 10 4.38354ZM6 5.38354C6.55228 5.38354 7 4.93583 7 4.38354C7 3.83126 6.55228 3.38354 6 3.38354C5.44772 3.38354 5 3.83126 5 4.38354C5 4.93583 5.44772 5.38354 6 5.38354Z" fill="black"/>
<mask id="path-3-inside-1" fill="white">
<path fill-rule="evenodd" clip-rule="evenodd" d="M19.2336 11.6089C19.4199 11.7127 19.5925 11.8484 19.7434 12.0154L25.5904 18.4872C26.3309 19.3068 26.2668 20.5715 25.4472 21.312L19.953 26.2757C19.1334 27.0162 17.8687 26.9521 17.1283 26.1325L11.2812 19.6606C11.1127 19.4741 10.9859 19.2645 10.9001 19.0433C10.6954 18.7107 10.5858 18.3148 10.6071 17.8953L10.8655 12.8017C10.9214 11.6985 11.861 10.8496 12.9642 10.9055L18.0749 11.1648C18.5155 11.1871 18.9156 11.3504 19.2336 11.6089Z"/>
</mask>
<path fill-rule="evenodd" clip-rule="evenodd" d="M19.2336 11.6089C19.4199 11.7127 19.5925 11.8484 19.7434 12.0154L25.5904 18.4872C26.3309 19.3068 26.2668 20.5715 25.4472 21.312L19.953 26.2757C19.1334 27.0162 17.8687 26.9521 17.1283 26.1325L11.2812 19.6606C11.1127 19.4741 10.9859 19.2645 10.9001 19.0433C10.6954 18.7107 10.5858 18.3148 10.6071 17.8953L10.8655 12.8017C10.9214 11.6985 11.861 10.8496 12.9642 10.9055L18.0749 11.1648C18.5155 11.1871 18.9156 11.3504 19.2336 11.6089Z" fill="#20BFC9"/>
<path d="M19.2336 11.6089L17.9724 13.1611L18.1075 13.2708L18.2595 13.3556L19.2336 11.6089ZM10.9001 19.0433L12.7649 18.3204L12.699 18.1504L12.6034 17.9951L10.9001 19.0433ZM10.6071 17.8953L12.6045 17.9966L10.6071 17.8953ZM10.8655 12.8017L12.8629 12.903L12.8629 12.903L10.8655 12.8017ZM12.9642 10.9055L12.8629 12.903L12.8629 12.903L12.9642 10.9055ZM18.0749 11.1648L18.1762 9.16733L18.1762 9.16733L18.0749 11.1648ZM18.2595 13.3556L18.2594 13.3562L21.2274 10.6746C20.928 10.3432 20.5825 10.0712 20.2078 9.86217L18.2595 13.3556ZM18.2594 13.3562L24.1064 19.828L27.0745 17.1465L21.2274 10.6746L18.2594 13.3562ZM24.1064 19.828L24.1064 19.828L26.7879 22.7961C28.4271 21.3151 28.5554 18.7857 27.0745 17.1465L24.1064 19.828ZM24.1064 19.828L18.6123 24.7917L21.2938 27.7598L26.7879 22.7961L24.1064 19.828ZM18.6123 24.7917L18.6123 24.7917L15.6442 27.4732C17.1252 29.1124 19.6546 29.2407 21.2938 27.7598L18.6123 24.7917ZM18.6123 24.7917L12.7653 18.3199L9.79719 21.0014L15.6442 27.4732L18.6123 24.7917ZM12.7653 18.3199L12.7649 18.3204L9.03531 19.7662C9.20785 20.2113 9.46259 20.631 9.79719 21.0014L12.7653 18.3199ZM12.6034 17.9951C12.6032 17.9948 12.6037 17.9955 12.6042 17.9972C12.6044 17.9981 12.6045 17.9987 12.6045 17.9991C12.6045 17.9994 12.6044 17.9987 12.6045 17.9966L8.60968 17.794C8.56726 18.6303 8.78682 19.4253 9.19675 20.0914L12.6034 17.9951ZM12.6045 17.9966L12.8629 12.903L8.86802 12.7004L8.60968 17.794L12.6045 17.9966ZM12.8629 12.903L12.8629 12.903L13.0655 8.90811C10.8592 8.79621 8.97992 10.4941 8.86802 12.7004L12.8629 12.903ZM12.8629 12.903L17.9736 13.1622L18.1762 9.16733L13.0655 8.90812L12.8629 12.903ZM17.9736 13.1622C17.9758 13.1623 17.9765 13.1625 17.976 13.1624C17.9756 13.1623 17.9749 13.1621 17.974 13.1618C17.9723 13.1611 17.9718 13.1606 17.9724 13.1611L20.4949 10.0567C19.8584 9.53951 19.055 9.2119 18.1762 9.16733L17.9736 13.1622Z" fill="black" mask="url(#path-3-inside-1)"/>
</svg>
