<svg width="24" height="22" viewBox="0 0 24 22" fill="none" xmlns="http://www.w3.org/2000/svg">
<rect x="1.9312" y="1.5" width="21" height="19" rx="1" stroke="black" stroke-width="2"/>
<path d="M10.371 11.9075L9.566 14.5H8.936C8.90267 14.5 8.87434 14.49 8.851 14.47C8.82767 14.45 8.80934 14.4167 8.796 14.37L8.426 13.0775C8.40767 13.0192 8.391 12.9617 8.376 12.905C8.36267 12.8483 8.35017 12.7908 8.3385 12.7325C8.32684 12.7908 8.3135 12.8492 8.2985 12.9075C8.28517 12.9658 8.26934 13.0242 8.251 13.0825L7.876 14.37C7.851 14.4567 7.796 14.5 7.711 14.5H7.111L6.306 11.9075H6.926C6.981 11.9075 7.02684 11.9208 7.0635 11.9475C7.10184 11.9725 7.12767 12.0042 7.141 12.0425L7.401 13.205C7.42267 13.2933 7.44184 13.3792 7.4585 13.4625C7.47517 13.5442 7.49017 13.6267 7.5035 13.71C7.52517 13.6267 7.54767 13.5442 7.571 13.4625C7.596 13.3792 7.62267 13.2933 7.651 13.205L7.976 12.04C7.98934 12.0017 8.01434 11.97 8.051 11.945C8.08767 11.9183 8.131 11.905 8.181 11.905H8.526C8.581 11.905 8.62684 11.9183 8.6635 11.945C8.70184 11.97 8.72767 12.0017 8.741 12.04L9.051 13.205C9.076 13.2933 9.10017 13.3792 9.1235 13.4625C9.1485 13.5458 9.171 13.63 9.191 13.715C9.20434 13.6317 9.22017 13.5483 9.2385 13.465C9.25684 13.3817 9.27767 13.295 9.301 13.205L9.576 12.0425C9.58934 12.0042 9.61434 11.9725 9.651 11.9475C9.68767 11.9208 9.731 11.9075 9.781 11.9075H10.371ZM14.4628 11.9075L13.6578 14.5H13.0278C12.9945 14.5 12.9661 14.49 12.9428 14.47C12.9195 14.45 12.9011 14.4167 12.8878 14.37L12.5178 13.0775C12.4995 13.0192 12.4828 12.9617 12.4678 12.905C12.4545 12.8483 12.442 12.7908 12.4303 12.7325C12.4186 12.7908 12.4053 12.8492 12.3903 12.9075C12.377 12.9658 12.3611 13.0242 12.3428 13.0825L11.9678 14.37C11.9428 14.4567 11.8878 14.5 11.8028 14.5H11.2028L10.3978 11.9075H11.0178C11.0728 11.9075 11.1186 11.9208 11.1553 11.9475C11.1936 11.9725 11.2195 12.0042 11.2328 12.0425L11.4928 13.205C11.5145 13.2933 11.5336 13.3792 11.5503 13.4625C11.567 13.5442 11.582 13.6267 11.5953 13.71C11.617 13.6267 11.6395 13.5442 11.6628 13.4625C11.6878 13.3792 11.7145 13.2933 11.7428 13.205L12.0678 12.04C12.0811 12.0017 12.1061 11.97 12.1428 11.945C12.1795 11.9183 12.2228 11.905 12.2728 11.905H12.6178C12.6728 11.905 12.7186 11.9183 12.7553 11.945C12.7936 11.97 12.8195 12.0017 12.8328 12.04L13.1428 13.205C13.1678 13.2933 13.192 13.3792 13.2153 13.4625C13.2403 13.5458 13.2628 13.63 13.2828 13.715C13.2961 13.6317 13.312 13.5483 13.3303 13.465C13.3486 13.3817 13.3695 13.295 13.3928 13.205L13.6678 12.0425C13.6811 12.0042 13.7061 11.9725 13.7428 11.9475C13.7795 11.9208 13.8228 11.9075 13.8728 11.9075H14.4628ZM18.5546 11.9075L17.7496 14.5H17.1196C17.0863 14.5 17.0579 14.49 17.0346 14.47C17.0113 14.45 16.9929 14.4167 16.9796 14.37L16.6096 13.0775C16.5913 13.0192 16.5746 12.9617 16.5596 12.905C16.5463 12.8483 16.5338 12.7908 16.5221 12.7325C16.5104 12.7908 16.4971 12.8492 16.4821 12.9075C16.4688 12.9658 16.4529 13.0242 16.4346 13.0825L16.0596 14.37C16.0346 14.4567 15.9796 14.5 15.8946 14.5H15.2946L14.4896 11.9075H15.1096C15.1646 11.9075 15.2104 11.9208 15.2471 11.9475C15.2854 11.9725 15.3113 12.0042 15.3246 12.0425L15.5846 13.205C15.6063 13.2933 15.6254 13.3792 15.6421 13.4625C15.6588 13.5442 15.6738 13.6267 15.6871 13.71C15.7088 13.6267 15.7313 13.5442 15.7546 13.4625C15.7796 13.3792 15.8063 13.2933 15.8346 13.205L16.1596 12.04C16.1729 12.0017 16.1979 11.97 16.2346 11.945C16.2713 11.9183 16.3146 11.905 16.3646 11.905H16.7096C16.7646 11.905 16.8104 11.9183 16.8471 11.945C16.8854 11.97 16.9113 12.0017 16.9246 12.04L17.2346 13.205C17.2596 13.2933 17.2838 13.3792 17.3071 13.4625C17.3321 13.5458 17.3546 13.63 17.3746 13.715C17.3879 13.6317 17.4038 13.5483 17.4221 13.465C17.4404 13.3817 17.4613 13.295 17.4846 13.205L17.7596 12.0425C17.7729 12.0042 17.7979 11.9725 17.8346 11.9475C17.8713 11.9208 17.9146 11.9075 17.9646 11.9075H18.5546Z" fill="black"/>
<path fill-rule="evenodd" clip-rule="evenodd" d="M21.9312 2.5H2.9312V4.5V6.5H21.9312V2.5ZM2.9312 4.5C2.9312 3.94772 3.37891 3.5 3.9312 3.5C4.48348 3.5 4.9312 3.94772 4.9312 4.5C4.9312 5.05228 4.48348 5.5 3.9312 5.5C3.37891 5.5 2.9312 5.05228 2.9312 4.5ZM10.9312 4.5C10.9312 5.05228 10.4835 5.5 9.9312 5.5C9.37891 5.5 8.9312 5.05228 8.9312 4.5C8.9312 3.94772 9.37891 3.5 9.9312 3.5C10.4835 3.5 10.9312 3.94772 10.9312 4.5ZM6.9312 5.5C7.48348 5.5 7.9312 5.05228 7.9312 4.5C7.9312 3.94772 7.48348 3.5 6.9312 3.5C6.37891 3.5 5.9312 3.94772 5.9312 4.5C5.9312 5.05228 6.37891 5.5 6.9312 5.5Z" fill="black"/>
</svg>
